# xmcd
#
# Track frame offsets: 
#        150
#        14987
#        41078
#        83102
#        106733
#        136582
#        175247
#        208209
#
# Disc length: 3126 seconds
#
# Revision: 3
# Processed by: cddbd v1.5.2PL0 Copyright (c) Steve Scherf et al.
# Submitted via: ExactAudioCopy v1.1
#
DISCID=690c3408
DTITLE=Clarke, Mick - Live in Luxembourg
DYEAR=2003
DGENRE=Electric Blues
TTITLE0=Bromley City Limits (Live)
TTITLE1=Looking For Trouble (Live)
TTITLE2=That's Alright (Live)
TTITLE3=London Town (Live)
TTITLE4=Cool Night Air (Live)
TTITLE5=You Gonna Miss Me (Live)
TTITLE6=You Need Love (Live)
TTITLE7=Don't You Lie to Me (Live)
EXTD=
EXTT0=
EXTT1=
EXTT2=
EXTT3=
EXTT4=
EXTT5=
EXTT6=
EXTT7=
PLAYORDER=
